<?xml version="1.0" encoding="utf-8"?>
<!-- Generator: Adobe Illustrator 21.1.0, SVG Export Plug-In . SVG Version: 6.00 Build 0)  -->
<svg version="1.1"
	 id="svg22880" xmlns:cc="http://creativecommons.org/ns#" xmlns:dc="http://purl.org/dc/elements/1.1/" xmlns:rdf="http://www.w3.org/1999/02/22-rdf-syntax-ns#" xmlns:svg="http://www.w3.org/2000/svg"
	 xmlns="http://www.w3.org/2000/svg" xmlns:xlink="http://www.w3.org/1999/xlink" x="0px" y="0px" width="439.7px" height="122.2px"
	 viewBox="0 0 439.7 122.2" style="enable-background:new 0 0 439.7 122.2;" xml:space="preserve">
<style type="text/css">
	.st0{fill:#1f2022;}
	.st1{fill:#1f2022;}
</style>
<g>
	<g>
		<path id="path7364" class="st0" d="M55.5,44.1c-2.7,0-4.8-2.2-4.8-4.8c0-2.6,2.2-4.8,4.8-4.8s4.8,2.2,4.8,4.8
			C60.3,42,58.2,44.1,55.5,44.1 M55.5,17.6c-12,0-21.8,9.7-21.8,21.8c0,12,9.7,21.8,21.8,21.8c12,0,21.8-9.7,21.8-21.8
			C77.2,27.3,67.5,17.6,55.5,17.6"/>
		<path id="path7368" class="st0" d="M70.9,104.3l0.9-0.4c0.9-0.4,5.2-2.8,4.3-5.8c-0.7-2.3-3.6-3.2-3.6-3.2s-18.1-5.4-29.4-9.1
			c-11.6-3.8-12-12.1-12.1-13.6c-0.6-9.2,6.3-13,7.3-13.5l0.5-0.3l0.2,0.3l-0.4,0.2c-0.6,0.3-4,2.2-3.6,4.7c0.5,2.4,3.5,3.3,3.5,3.3
			S56.7,72.3,68,76c11.6,3.8,12,12.1,12.1,13.6c0.7,10.1-6.8,14-8,14.6l-0.9,0.4L70.9,104.3z"/>
	</g>
	<g>
		<path id="path7372" class="st1" d="M131.6,40.9c-1.7-2.4-4.7-3.8-7.6-3.8c-2.5,0-4.8,0.9-6.7,2.5c-2,1.8-3.3,4.6-3.3,7.3
			c0,2.4,1.1,5,2.8,6.7c1.9,2.1,4.7,3.2,7.4,3.2c3.4,0,6.9-2.1,8.4-5.2h-12v-5h18.8v0.6c0,8.4-7.1,14.8-15.3,14.8
			c-8.3,0-15.4-6.5-15.4-14.9c0-8.5,7-15.1,15.3-15.1c5.8,0,11.8,3.5,14,9H131.6z"/>
		<path id="path7376" class="st1" d="M169.6,31.9c-8.3,0-15,6.7-15,15.1c0,8.3,6.8,14.9,15,14.9c8.2,0,15-6.7,15-15
			C184.6,38.6,177.9,31.9,169.6,31.9 M179.3,47c0,5.4-4.4,9.8-9.7,9.8c-5.3,0-9.7-4.4-9.7-9.7c0-5.5,4.3-9.9,9.7-9.8l0-0.1
			C174.9,37.1,179.3,41.5,179.3,47"/>
		<path id="path7380" class="st1" d="M209.4,43.5v-5.9h1c1.1,0,2.5-0.2,3.5,0.3c1.1,0.4,1.8,1.4,1.8,2.5c0,1.1-0.6,2.2-1.6,2.6
			c-1,0.5-2.5,0.4-3.6,0.4H209.4z M204,61.3h7.2c2.8-0.1,5.7-0.2,8-1.9c2.2-1.7,3.5-4.1,3.5-6.9c0-3.3-1.8-6-4.9-7
			c2.1-1,3.2-3.2,3.2-5.5c0-2.7-1.7-5.3-4-6.5c-2.4-1.2-5.1-1.1-7.7-1.1H204V61.3z M209.4,56.1v-7.4h2.3c1.3,0,2.6,0,3.8,0.6
			c1.2,0.7,1.9,1.6,1.9,3c0,1.2-0.4,2.1-1.4,2.8c-1.4,0.9-2.8,1-4.4,1H209.4z"/>
		<path id="path7384" class="st1" d="M244,32.5h15.5v5.2h-10.1v6.6h9.7v5.2h-9.7v6.6h10.1v5.2H244V32.5z"/>
		<path id="path7388" class="st1" d="M282.1,32.5h5.3v23.6h8.8v5.2h-14.1V32.5z"/>
		<path id="path7390" class="st1" d="M316.1,32.5h5.3v28.8h-5.3V32.5z"/>
		<path id="path7394" class="st1" d="M345.5,32.5h6l12,21.1V32.5h5.3v28.8h-5.9l-12.1-21v21h-5.3V32.5z"/>
		<path id="path7398" class="st1" d="M395.7,53.2c0,2.3,1.9,3.6,4,3.6c2,0,3.8-1.5,3.8-3.6c0-3.2-2.6-4.1-5-4.9
			c-1.9-0.6-3.5-1.2-5-2.6c-1.4-1.5-2.3-3.5-2.3-5.5c0-4.7,3.9-8.2,8.5-8.2c4.4,0,8.5,3.7,8.4,8.2h-5.5c-0.1-1.8-1.6-3-3.2-3
			c-1.8,0-2.9,1.3-2.8,3c0,2.1,1.9,2.9,3.6,3.5c2,0.7,4,1.3,5.6,2.6c2.1,1.6,3,3.7,3,6.6c0,5.1-4.2,9.1-9.4,9.1
			c-4.9,0-9.3-3.8-9.3-8.8L395.7,53.2z"/>
		<path id="path7402" class="st1" d="M119.1,89.9h-10V70.2h2.1v18.2h7.9V89.9z"/>
		<path id="path7406" class="st1" d="M122.5,70.3h2l-2,5.4h-1.1L122.5,70.3z"/>
		<path id="path7410" class="st1" d="M137.2,69.5h-1.5l2.9-2.6h2.7L137.2,69.5z M140.4,78.9v1.4h-6.7v8.1h8.9v1.4h-10.9V70.2h10.6
			v1.4h-8.6v7.3L140.4,78.9z"/>
		<path id="path7414" class="st1" d="M167.2,85.2c-1.4,2.5-4.5,5.1-8.8,5.1c-2.9,0-5.5-1-7.2-2.5c-2-1.8-3.1-4.3-3.1-7.8
			c0-3.3,1.2-5.8,3.1-7.6c1.9-1.7,4.4-2.6,7.3-2.6c4.1,0,6.9,2,8.3,4.7l-2.1,0.4c-1-2-2.9-3.8-6.2-3.8c-4.2,0-8.3,2.5-8.3,8.9
			c0,6.2,4,8.8,8.2,8.8c3.7,0,5.9-2.6,6.7-4.2L167.2,85.2z"/>
		<path id="path7418" class="st1" d="M171.2,80c0,7,4.7,10.2,10.3,10.2c5.6,0,10.3-3.2,10.3-10.2c0-7-4.7-10.2-10.3-10.2
			C175.9,69.8,171.2,73,171.2,80L171.2,80z M181.5,71.2c4.2,0,8.2,2.6,8.2,8.9c0,6.2-4,8.8-8.2,8.8c-4.2,0-8.2-2.6-8.2-8.8
			C173.3,73.8,177.3,71.2,181.5,71.2L181.5,71.2z"/>
		<path id="path7422" class="st1" d="M207.9,89.9h-10V70.2h2.1v18.2h7.9V89.9z"/>
		<path id="path7426" class="st1" d="M223.1,78.9v1.4h-6.7v8.1h8.9v1.4h-10.9V70.2H225v1.4h-8.6v7.3H223.1z"/>
		<path id="path7430" class="st1" d="M245.4,89.9c7,0,9.9-3.6,9.9-9.9c0-6.4-3.1-9.8-9.9-9.8h-6.2v19.7H245.4z M241.2,88.5V71.6h4.1
			c5.6,0,7.9,3,7.9,8.4c0,5.6-2.6,8.4-7.9,8.4H241.2z"/>
		<path id="path7434" class="st1" d="M271.4,78.9v1.4h-6.7v8.1h8.9v1.4h-10.9V70.2h10.6v1.4h-8.6v7.3H271.4z"/>
		<path id="path7438" class="st1" d="M296.6,89.9h-10V70.2h2.1v18.2h7.9V89.9z"/>
		<path id="path7442" class="st1" d="M300.1,70.8h2l-2,5.4H299L300.1,70.8z"/>
		<path id="path7444" class="st1" d="M309.8,70.2h2.1v19.7h-2.1V70.2z"/>
		<path id="path7448" class="st1" d="M332.2,87.8c1.2-3.2,3.5-8.9,7.2-17.6h3.2v19.7h-1.9c0-8.9,0-14.9,0.1-18.1h-0.1
			c-1.2,3.2-3.7,9-7.5,18.1h-2c-3.7-8.9-6.2-14.9-7.5-18.1h-0.1c0.1,3.2,0.1,9.2,0.1,18.1h-1.9V70.2h3.2
			C328.6,78.9,331,84.6,332.2,87.8L332.2,87.8z"/>
		<path id="path7452" class="st1" d="M362.2,83.7l2.5,6.2h2.3l-8.4-19.7h-2.6l-8.3,19.7h2.3l2.5-6.2H362.2z M361.6,82.3h-8.4
			l2.1-5.4c0.7-1.7,1.4-3.4,2-5.3h0.1c0.7,1.9,1.4,3.6,2,5.4L361.6,82.3z"/>
		<path id="path7456" class="st1" d="M390.5,87.8c-2.2,1.5-5.1,2.5-8.8,2.5c-6.4,0-11-3.8-11-10.2c0-7.3,5.7-10.2,11.1-10.2
			c3.7,0,6.5,1.4,8.5,3.9l-2.1,0.6c-1.6-2-3.3-3.1-6.4-3.1c-3.9,0-9.1,2.3-9.1,8.9c0,5.6,3.9,8.9,9.1,8.9c2.5,0,4.9-0.6,6.5-1.7
			v-5.2h-5.9v-1.4h8V87.8z"/>
		<path id="path7460" class="st1" d="M406.5,78.9v1.4h-6.7v8.1h8.8v1.4h-10.9V70.2h10.6v1.4h-8.6v7.3H406.5z"/>
	</g>
</g>
</svg>
