<?xml version="1.0" encoding="utf-8"?>
<!-- Generator: Adobe Illustrator 21.1.0, SVG Export Plug-In . SVG Version: 6.00 Build 0)  -->
<svg version="1.1" id="Calque_1" xmlns="http://www.w3.org/2000/svg" xmlns:xlink="http://www.w3.org/1999/xlink" x="0px" y="0px"
	 width="960px" height="274px" viewBox="0 0 960 274" style="enable-background:new 0 0 960 274;" xml:space="preserve">
<style type="text/css">
	.st0{fill:#1F8DBA;}
	.st1{fill:#7EAED0;}
	.st2{fill:#539BC4;}
	.st3{fill:#144150;}
</style>
<g>
	<path class="st0" d="M121.4,231.5H51.6c-0.8,0-1.4-0.6-1.4-1.4V131c0-0.8,0.6-1.4,1.4-1.4h69.7c0.8,0,1.4,0.6,1.4,1.4v99.1
		C122.8,230.9,122.1,231.5,121.4,231.5z"/>
	<path class="st1" d="M209.8,231.5h-69.7c-0.8,0-1.4-0.6-1.4-1.4V174c0-0.8,0.6-1.4,1.4-1.4h69.7c0.8,0,1.4,0.6,1.4,1.4v56.1
		C211.2,230.9,210.6,231.5,209.8,231.5z"/>
	<path class="st2" d="M299.8,231.5h-71.4c-0.8,0-1.4-0.6-1.4-1.4V37c0-0.8,0.6-1.4,1.4-1.4h71.4c0.8,0,1.4,0.6,1.4,1.4v193.1
		C301.1,230.9,300.5,231.5,299.8,231.5z"/>
</g>
<g>
	<path class="st3" d="M431.6,193.2l-16.4-31.8h-9.6v31.8h-25.1V98.3h35.9c20.4,0,38,7,38,30.7c0,13.6-6.1,22.5-15.3,27.5l20.6,36.8
		H431.6z M405.6,141.5h9.1c9.9,0,15.2-4.4,15.2-12.6s-5.3-10.8-15.2-10.8h-9.1V141.5z"/>
	<path class="st3" d="M497.7,119c20.6,0,30.8,15,30.8,34.8c0,3.8-0.4,7.3-0.9,9.1h-43.4c1.9,11,9.2,15.8,18.8,15.8
		c5.4,0,10.4-1.6,15.6-4.8l7.2,13c-7.4,5.1-17.1,8.2-25.7,8.2c-20.7,0-36.7-14-36.7-38C463.6,133.5,480.4,119,497.7,119z
		 M510.3,149.5c0-8.3-3.5-14.2-12.1-14.2c-6.7,0-12.6,4.5-14,14.2H510.3z"/>
	<path class="st3" d="M576.3,146.6c-0.4-6.4-3.7-10.5-11.4-10.5c-6.1,0-12.3,2.5-19.3,6.6l-7.6-14.2c9.2-5.5,19.6-9.5,31-9.5
		c18.5,0,28.8,10.5,28.8,32.7v41.5h-17.5l-1.6-7.4h-0.4c-6.1,5.4-13,9.2-21.2,9.2c-13.1,0-21.5-9.6-21.5-21.9
		C535.6,157.8,547.7,149.5,576.3,146.6z M564.3,178.3c5,0,8.2-2.3,12-6.1v-12.7c-15.3,2-20.3,6.4-20.3,12
		C556,176.1,559.2,178.3,564.3,178.3z"/>
	<path class="st3" d="M611.5,91.5h25.1v76.8c0,5,2.3,6.4,4.1,6.4c0.9,0,1.5,0,2.6-0.3l2.9,18.4c-2.6,1.2-6.7,2-12.3,2
		c-16.9,0-22.5-11.1-22.5-27.5V91.5z"/>
	<path class="st3" d="M655.5,213.8c8,0,13.1-6.4,16.1-15.2l1.6-5.3l-28.5-71.1h12.4l14.5,39.3c2.2,6.1,4.7,13.4,6.9,20h0.6
		c2-6.4,4.1-13.7,6-20l12.7-39.3h11.7L682.6,199c-5,14-12.3,24.7-26.6,24.7c-3.2,0-6-0.6-8.3-1.5l2.3-9.5
		C651.5,213.2,653.7,213.8,655.5,213.8z"/>
	<path class="st3" d="M721.5,132H711v-9.1l11.1-0.7l1.5-19.9h10.1v19.9h19.1v9.8h-19.1v39.4c0,8.8,2.8,13.7,11,13.7
		c2.5,0,5.7-1,8-1.9l2.3,9.1c-3.9,1.3-8.8,2.6-13.1,2.6c-15.2,0-20.3-9.6-20.3-23.7V132z"/>
	<path class="st3" d="M762.9,99.9c0-4.7,3.7-7.7,8.3-7.7c4.7,0,8.3,3.1,8.3,7.7c0,4.5-3.7,7.7-8.3,7.7
		C766.6,107.6,762.9,104.4,762.9,99.9z M765.1,122.2h12v71h-12V122.2z"/>
	<path class="st3" d="M826.3,120.5c9.3,0,15.9,3.9,20.7,8.5l-6,7.7c-4.2-3.7-8.6-6.3-14.3-6.3c-12.9,0-22.2,11.1-22.2,27.5
		c0,16.2,8.9,27.2,21.9,27.2c6.7,0,12.4-3.4,16.6-7.2l5.4,7.9c-6.4,5.7-14.6,9.2-23.1,9.2c-18.8,0-33.3-13.6-33.3-37.1
		C792.2,134,808.1,120.5,826.3,120.5z"/>
	<path class="st3" d="M858.5,177.1c6.1,5,12.4,8.5,20.9,8.5c9.3,0,14-5,14-11.1c0-7.3-8.5-10.5-16.2-13.4
		c-10.1-3.7-21.2-8.5-21.2-20.4c0-11.4,9.1-20.2,24.4-20.2c8.9,0,16.6,3.7,22.1,8l-5.7,7.6c-4.8-3.7-9.9-6.3-16.2-6.3
		c-8.9,0-13,4.8-13,10.2c0,6.6,7.7,9.2,15.8,12.3c10.2,3.8,21.6,8,21.6,21.5c0,11.5-9.2,21.2-26,21.2c-10.1,0-19.7-4.2-26.4-9.8
		L858.5,177.1z"/>
</g>
</svg>
